<?xml version="1.0" encoding="UTF-8" standalone="no"?>
<!-- Created with Inkscape (http://www.inkscape.org/) -->

<svg
   width="81.479156mm"
   height="77.255898mm"
   viewBox="0 0 81.479156 77.255898"
   version="1.1"
   id="svg5"
   xml:space="preserve"
   xmlns="http://www.w3.org/2000/svg"
   xmlns:svg="http://www.w3.org/2000/svg"><defs
     id="defs2" /><g
     id="layer1"
     style="display:inline"
     transform="translate(-51.183965,-8.3150232)"><path
       id="path2947"
       style="color:#000000;display:inline;fill:#415c8c;fill-opacity:1;stroke:#282828;stroke-width:2.2;stroke-linecap:round;stroke-linejoin:round;stroke-dasharray:none;stroke-opacity:1"
       d="m 97.129224,60.037597 a 2.1025344,2.2003908 0 0 0 -0.652793,0.07391 2.1025344,2.2003908 0 0 0 -1.275234,1.03025 c -1.41451,2.581712 -2.049226,5.442169 -1.960031,8.256991 -0.431442,-0.115318 -0.8768,-0.177185 -1.338692,-0.180755 -0.494624,-0.0038 -0.968319,0.05912 -1.423671,0.180179 0.08852,-2.788099 -0.533373,-5.621497 -1.9203,-8.184807 a 2.1025344,2.2003908 0 0 0 -1.268061,-1.035446 2.1025344,2.2003908 0 0 0 -1.598594,0.20501 2.1025344,2.2003908 0 0 0 -0.793503,3.000077 c 1.820179,3.364044 1.820748,7.340072 0.224034,10.605079 -1.88e-4,3.83e-4 -3.65e-4,7.72e-4 -5.52e-4,0.0011 a 2.1025344,2.2003908 0 0 0 -0.0723,0.143796 c -0.618921,1.221001 -1.463012,2.338452 -2.521774,3.281893 -3.913174,3.486947 -9.606854,3.578039 -13.618131,0.215403 -4.011278,-3.362633 -5.169537,-9.195062 -2.772294,-13.952805 a 2.1025344,2.2003908 0 0 0 -0.878483,-2.972933 2.1025344,2.2003908 0 0 0 -2.840721,0.919369 c -3.325258,6.59955 -1.700889,14.776926 3.863224,19.441299 5.564115,4.66437 13.543216,4.537663 18.971245,-0.299143 1.436307,-1.279864 2.590068,-2.796613 3.444953,-4.455935 1.522995,-2.098919 2.622652,-2.695378 3.174013,-2.691117 0.558371,0.0042 1.718221,0.611718 3.37708,3.114419 0.83276,1.50241 1.916405,2.877696 3.23968,4.052269 5.467921,4.853445 13.504171,4.933077 19.058441,0.188261 5.55427,-4.744814 7.08784,-12.999161 3.6392,-19.577586 a 2.1025344,2.2003908 0 0 0 -2.85506,-0.870281 2.1025344,2.2003908 0 0 0 -0.83104,2.987947 c 2.48642,4.742945 1.39006,10.630619 -2.61448,14.051558 -4.00454,3.420939 -9.73434,3.363551 -13.67663,-0.135711 -0.94374,-0.837686 -1.71801,-1.81353 -2.31485,-2.877647 a 2.1025344,2.2003908 0 0 0 -0.12802,-0.234462 c -1.772191,-3.342573 -1.82699,-7.501475 0.08387,-10.989113 a 2.1025344,2.2003908 0 0 0 -0.779705,-3.002355 2.1025344,2.2003908 0 0 0 -0.940837,-0.288745 z" /><path
       id="path1602-3"
       style="display:inline;fill:#dda33c;fill-opacity:1;stroke:#282828;stroke-width:2.2;stroke-linecap:round;stroke-linejoin:round;stroke-dasharray:none;stroke-opacity:1"
       d="m 77.121466,9.4129316 c 0.248986,2.2571774 -1.115268,12.6913344 3.114572,14.7675644 -9.96385,-5.224189 -17.043639,5.983037 -26.140919,7.27359 7.044771,1.753177 6.960661,1.701927 12.025907,-0.452407 -7.571149,6.289523 -7.303613,11.347403 -7.169893,16.614459 -0.8357,1.542455 -2.042346,6.122868 -6.667477,5.378877 2.508493,1.903137 4.511398,2.394797 8.564202,1.703717 -1.011909,2.124379 -2.931463,5.387047 -5.494586,7.174806 3.964346,0.278538 7.657673,-2.90672 11.774895,-5.128916 -0.703337,1.711018 -4.046655,7.505212 -4.38916,9.216228 4.468794,-1.57953 8.462067,-2.817248 11.705577,-5.538721 0.09421,4.801941 1.555954,6.483557 4.710768,10.770112 0.512501,-0.493181 0.957107,-3.225582 1.524311,-4.431065 2.434725,3.660427 7.134949,7.291863 10.267912,6.588303 -2.347279,-2.437028 -3.44872,-6.378837 -4.561866,-8.770547 2.903342,3.422951 5.1144,4.010125 8.417611,4.155917 -2.463186,-2.051818 -3.610467,-7.349954 -1.5212,-18.473616 6.291316,17.548901 14.85133,16.118666 33.19371,19.936072 -5.91332,-4.877507 0.48176,-10.436693 -1.20668,-16.760136 2.58778,1.811826 5.05479,4.52552 5.84636,7.029426 1.91313,-6.031408 -2.36292,-13.721902 -11.34685,-21.569486 3.65474,0.96564 7.18136,4.975378 9.46118,5.352905 C 124.69248,36.034472 119.89431,24.118762 106.0456,25.742088 97.764064,15.8449 79.504449,20.786366 77.121466,9.4129316 Z" /></g></svg>
