<?xml version="1.0" encoding="UTF-8" standalone="no"?>
<!-- Created with Inkscape (http://www.inkscape.org/) -->

<svg
   width="90.132866mm"
   height="78.703278mm"
   viewBox="0 0 90.132866 78.703278"
   version="1.1"
   id="svg5"
   xml:space="preserve"
   xmlns="http://www.w3.org/2000/svg"
   xmlns:svg="http://www.w3.org/2000/svg"><defs
     id="defs2" /><g
     id="layer4"
     transform="translate(-21.847609,-130.94387)"><path
       style="fill:#537172;fill-opacity:1;stroke:#282828;stroke-width:2.2;stroke-linecap:round;stroke-linejoin:round;stroke-dasharray:none;stroke-opacity:1;paint-order:normal"
       d="m 30.615096,167.28913 c 1.881629,12.39333 9.789652,17.95961 7.98495,22.69349 -2.17557,5.70666 -8.416179,6.88999 -12.218194,4.14491 1.324222,6.57873 3.917383,7.74008 7.324755,7.91642 -0.431953,0.48276 -0.554944,3.28953 -1.524336,4.19862 8.244316,-1.86259 15.970648,-11.34965 15.401135,-14.48749 -3.008905,-16.57811 -4.818156,-14.24194 -5.547514,-21.79765 z"
       id="path12455" /><path
       style="fill:#537172;fill-opacity:1;stroke:#282828;stroke-width:2.2;stroke-linecap:round;stroke-linejoin:round;stroke-dasharray:none;stroke-opacity:1;paint-order:normal"
       d="m 86.156786,179.68258 c 0.516491,7.59916 -7.102364,9.23475 -8.232157,21.0043 -0.317675,3.30936 3.476058,6.98928 6.038377,7.56737 4.664351,1.05233 10.292116,-0.77888 9.878456,-5.6986 -2.96573,2.35974 -7.689814,2.69825 -6.849296,-1.86124 2.539026,-13.77323 18.951214,-8.88473 10.991866,-32.31041 z"
       id="path12457" /><path
       style="display:inline;fill:#e1ecec;fill-opacity:1;stroke:#282828;stroke-width:2.2;stroke-linecap:round;stroke-linejoin:round;stroke-dasharray:none;stroke-opacity:1;paint-order:normal"
       d="m 89.337272,167.46823 c 7.81547,-0.0434 15.729268,-0.441 21.543288,3.54433 -2.05271,1.33407 -6.0165,2.58854 -8.06922,4.3215 1.22105,0.67814 4.27257,1.78288 5.21076,2.67432 -8.981418,4.84868 -14.680418,3.07368 -23.055479,5.25302 z"
       id="path10598" /><path
       style="display:inline;fill:#e1ecec;fill-opacity:1;stroke:#282828;stroke-width:2.2;stroke-linecap:round;stroke-linejoin:round;stroke-dasharray:none;stroke-opacity:1;paint-order:normal"
       d="m 40.967128,154.49772 c -5.113278,0.47488 -12.906244,1.61381 -18.019522,2.68311 0.09282,3.11191 3.733764,5.01052 6.532922,7.83023 l -5.455932,2.78429 c 1.609019,2.47189 11.278725,0.50782 19.101254,5.59681 z"
       id="path10600" /><path
       style="display:inline;fill:#537172;fill-opacity:1;stroke:#282828;stroke-width:2.2;stroke-linecap:round;stroke-linejoin:round;stroke-dasharray:none;stroke-opacity:1;paint-order:normal"
       d="m 69.128083,144.2856 c 1.802477,-10.34425 9.894766,-14.25078 17.33146,-11.27822 10.699879,4.2769 10.032649,18.37286 0.865688,18.11488 1.346583,-4.87293 0.119432,-12.65629 -4.855281,-13.66946 -8.020439,-1.63349 -9.367548,5.39244 -8.945289,8.38186 8.394392,2.1252 13.768986,8.14073 20.280631,16.22165 2.96628,1.80675 7.141588,2.08801 11.458608,2.0978 -2.49945,2.14655 -5.974158,5.07672 -8.307798,5.02898 3.718728,2.80485 5.254128,4.66186 7.124978,8.80174 -2.03967,-0.48851 -2.18842,-0.47202 -5.033608,-1.35341 -0.65904,3.68681 -1.88045,7.75979 -3.03131,11.30668 -3.59456,-2.2291 -6.74742,-3.95549 -8.877421,-4.51778 -2.610466,12.18097 -12.450502,6.96184 -16.089567,19.66505 -2.144603,-1.71104 -1.585324,-4.62753 -1.448932,-6.55744 -0.780594,-0.28503 -2.046453,0.44898 -2.48633,0.81022 -0.483374,-13.99856 12.894032,-8.72477 15.405687,-20.40698 -1.771949,-0.90244 -2.184507,-2.99496 -2.309573,-5.33919 -1.367469,1.00551 -2.578155,0.58354 -3.825229,0.49286 3.445433,-1.10198 3.228533,-3.34347 4.214912,-5.972 -3.842573,1.69121 -5.908749,-0.32865 -9.378576,-2.03119 -4.62111,1.44199 -5.754407,-0.852 -7.217413,-2.7928 l 0.432778,4.5247 c -2.93987,-1.27046 -3.761568,-2.96714 -5.268445,-5.05304 -3.006779,0.64816 -4.367041,5.90196 -6.768929,7.92429 -0.746779,-1.3829 -1.516335,-4.00693 -1.572949,-5.38869 -4.91397,3.5177 -6.095644,23.22735 9.888318,32.01529 -3.119956,0.27526 -9.740021,1.22496 -11.92286,-1.69936 l 0.50483,4.31842 c -6.412639,-4.71874 -12.989585,-12.05684 -9.931214,-24.34771 -5.055921,-1.81607 -6.187926,-6.34066 -5.895069,-11.53646 -2.23118,-0.8525 -3.931344,-0.59584 -6.986728,0.99726 2.360226,-6.47764 6.181448,-10.10972 11.003733,-12.2917 -3.340205,-3.69917 -4.00632,-8.08647 -5.284697,-11.57946 10.341682,9.47823 24.037672,1.13095 36.925595,5.11321 z"
       id="path9675" /><path
       style="fill:none;fill-opacity:1;stroke:#252525;stroke-width:2.2;stroke-linecap:round;stroke-linejoin:round;stroke-dasharray:none;stroke-opacity:1"
       d="m 60.027853,180.82975 c 0.768751,1.87175 2.133443,2.45287 4.37061,0.0222 1.245752,1.91237 4.538663,1.87401 5.815863,-1.5965"
       id="path1202" /><ellipse
       style="fill:#fea578;fill-opacity:1;stroke:#252525;stroke-width:2.2;stroke-linecap:round;stroke-linejoin:round;stroke-dasharray:none;stroke-opacity:1"
       id="path1312"
       cx="79.565224"
       cy="184.42397"
       rx="5.6722388"
       ry="3.2158358" /><ellipse
       style="fill:#fea578;fill-opacity:1;stroke:#252525;stroke-width:2.2;stroke-linecap:round;stroke-linejoin:round;stroke-dasharray:none;stroke-opacity:1"
       id="path1312-4"
       cx="48.394844"
       cy="184.22192"
       rx="5.6722388"
       ry="3.2158358" /></g></svg>
